# xmcd CD database file
#
# Track frame offsets:
#	150
#	17572
#	33987
#	53325
#	70202
#	91730
#	109687
#	126132
#	142282
#	157727
#
# Disc length: 2471 seconds
#
# Revision: 7
# Processed by: cddbd v1.5.2PL0 Copyright (c) Steve Scherf et al.
# Submitted via: CDex 1.70beta3
#
DISCID=7609a50a
DTITLE=Jackson Browne - For Everyman
DYEAR=1973
DGENRE=West Coast Rock
TTITLE0=Take It Easy
TTITLE1=Our Lady of the Well
TTITLE2=Colors of the Sun
TTITLE3=I Thought I Was a Child
TTITLE4=These Days
TTITLE5=Red Neck Friend
TTITLE6=The Times You've Come
TTITLE7=Ready or Not
TTITLE8=Sing My Songs to Me
TTITLE9=For Everyman
EXTD=YEAR: 1973
EXTT0=
EXTT1=
EXTT2=
EXTT3=
EXTT4=
EXTT5=
EXTT6=
EXTT7=
EXTT8=
EXTT9=
PLAYORDER=
